HIERARCHY
ROOT Hips
{
	OFFSET 0.000000 0.000000 0.000000
	CHANNELS 6 Xposition Yposition Zposition Zrotation Yrotation Xrotation 
	JOINT LHipJoint
	{
		OFFSET 0.000000 0.000000 0.000000
		CHANNELS 3 Zrotation Yrotation Xrotation
		JOINT LeftUpLeg
		{
			OFFSET 1.363060 -1.794630 0.839290
			CHANNELS 3 Zrotation Yrotation Xrotation
			JOINT LeftLeg
			{
				OFFSET 2.448110 -6.726130 0.000000
				CHANNELS 3 Zrotation Yrotation Xrotation
				JOINT LeftFoot
				{
					OFFSET 2.562200 -7.039590 0.000000
					CHANNELS 3 Zrotation Yrotation Xrotation
					JOINT LeftToeBase
					{
						OFFSET 0.157640 -0.433110 2.322550
						CHANNELS 3 Zrotation Yrotation Xrotation
						End Site
						{
							OFFSET 0.000000 0.000000 0.000000
						}
					}
				}
			}
		}
	}
	JOINT RHipJoint
	{
		OFFSET 0.000000 0.000000 0.000000
		CHANNELS 3 Zrotation Yrotation Xrotation
		JOINT RightUpLeg
		{
			OFFSET -1.305520 -1.794630 0.839290
			CHANNELS 3 Zrotation Yrotation Xrotation
			JOINT RightLeg
			{
				OFFSET -2.542530 -6.985550 0.000000
				CHANNELS 3 Zrotation Yrotation Xrotation
				JOINT RightFoot
				{
					OFFSET -2.568260 -7.056230 0.000000
					CHANNELS 3 Zrotation Yrotation Xrotation
					JOINT RightToeBase
					{
						OFFSET -0.164730 -0.452590 2.363150
						CHANNELS 3 Zrotation Yrotation Xrotation
						End Site
						{
							OFFSET 0.000000 0.000000 0.000000
						}
					}
				}
			}
		}
	}
	JOINT LowerBack
	{
		OFFSET 0.000000 0.000000 0.000000
		CHANNELS 3 Zrotation Yrotation Xrotation
		JOINT Spine
		{
			OFFSET 0.028270 2.035590 -0.193380
			CHANNELS 3 Zrotation Yrotation Xrotation
			JOINT Spine1
			{
				OFFSET 0.056720 2.048850 -0.042750
				CHANNELS 3 Zrotation Yrotation Xrotation
				JOINT Neck
				{
					OFFSET 0.000000 0.000000 0.000000
					CHANNELS 3 Zrotation Yrotation Xrotation
					JOINT Neck1
					{
						OFFSET -0.054170 1.746240 0.172020
						CHANNELS 3 Zrotation Yrotation Xrotation
						JOINT Head
						{
							OFFSET 0.104070 1.761360 -0.123970
							CHANNELS 3 Zrotation Yrotation Xrotation
							End Site
							{
								OFFSET 0.000000 0.000000 0.000000
							}
						}
					}
				}
				JOINT LeftShoulder
				{
					OFFSET 0.000000 0.000000 0.000000
					CHANNELS 3 Zrotation Yrotation Xrotation
					JOINT LeftArm
					{
						OFFSET 3.362410 1.200890 -0.311210
						CHANNELS 3 Zrotation Yrotation Xrotation
						JOINT LeftForeArm
						{
							OFFSET 4.983000 -0.000000 -0.000000
							CHANNELS 3 Zrotation Yrotation Xrotation
							JOINT LeftHand
							{
								OFFSET 3.483560 -0.000000 -0.000000
								CHANNELS 3 Zrotation Yrotation Xrotation
								JOINT LeftFingerBase
								{
									OFFSET 0.000000 0.000000 0.000000
									CHANNELS 3 Zrotation Yrotation Xrotation
									JOINT LeftHandIndex1
									{
										OFFSET 0.715260 -0.000000 -0.000000
										CHANNELS 3 Zrotation Yrotation Xrotation
										End Site
										{
											OFFSET 0.000000 0.000000 0.000000
										}
									}
								}
								JOINT LThumb
								{
									OFFSET 0.000000 0.000000 0.000000
									CHANNELS 3 Zrotation Yrotation Xrotation
									End Site
									{
										OFFSET 0.000000 0.000000 0.000000
									}
								}
							}
						}
					}
				}
				JOINT RightShoulder
				{
					OFFSET 0.000000 0.000000 0.000000
					CHANNELS 3 Zrotation Yrotation Xrotation
					JOINT RightArm
					{
						OFFSET -3.136600 1.374050 -0.404650
						CHANNELS 3 Zrotation Yrotation Xrotation
						JOINT RightForeArm
						{
							OFFSET -5.241900 -0.000000 -0.000000
							CHANNELS 3 Zrotation Yrotation Xrotation
							JOINT RightHand
							{
								OFFSET -3.444170 -0.000000 -0.000000
								CHANNELS 3 Zrotation Yrotation Xrotation
								JOINT RightFingerBase
								{
									OFFSET 0.000000 0.000000 0.000000
									CHANNELS 3 Zrotation Yrotation Xrotation
									JOINT RightHandIndex1
									{
										OFFSET -0.622530 -0.000000 -0.000000
										CHANNELS 3 Zrotation Yrotation Xrotation
										End Site
										{
											OFFSET 0.000000 0.000000 0.000000
										}
									}
								}
								JOINT RThumb
								{
									OFFSET 0.000000 0.000000 0.000000
									CHANNELS 3 Zrotation Yrotation Xrotation
									End Site
									{
										OFFSET 0.000000 0.000000 0.000000
									}
								}
							}
						}
					}
				}
			}
		}
	}
}
MOTION
Frames: 11
Frame Time: 0.008333
2.068107 16.624279 -2.607424 28.872695 83.354310 36.999542 -12.768790 6.141591 -0.369702 -2.851456 19.051796 -2.215704 -0.654670 2.515030 39.031289 0.604469 -12.352179 22.370929 -5.999800 0.000000 -81.453599 7.296902 -1.052383 3.761918 17.211794 3.492823 -36.150341 2.189223 -0.485444 23.194343 -3.173960 -11.628295 -10.502511 -0.437400 0.000000 -3.010501 5.346012 -7.018031 -5.208413 1.300386 -7.472217 -3.773478 -3.793715 -7.573021 0.968666 8.366360 -19.107344 -9.644840 -1.716723 -0.104175 -0.405712 0.000000 0.000000 0.000000 8.583230 1.479863 -0.787530 -17.328442 -25.884163 -17.454224 -0.337209 -77.677587 -0.120752 10.918503 0.567722 -0.006412 -0.061226 0.634229 -0.000000 0.000000 0.000000 0.000000 0.000000 0.000000 0.000000 9.463363 -19.137222 1.930946 57.567754 -33.266498 -29.991842 4.031930 22.304638 -0.004359 -4.112831 -0.600584 0.021241 0.183790 -0.040616 -0.000000 0.000000 0.000000 0.000000 0.000000 0.000000 0.000000 
2.226445 16.567633 -2.577279 25.187721 83.474029 33.247050 -12.867527 6.078369 -0.476469 -1.790172 19.396112 -3.511288 -0.510054 2.675921 42.177150 0.723587 -11.897468 22.998624 -5.992900 -0.000000 -77.608800 7.294138 -1.013504 3.690710 17.718811 3.866216 -36.958769 2.055166 -0.812070 26.440593 -3.218745 -11.568905 -11.510005 179.847200 -0.000000 -0.777200 5.688646 -6.911827 -5.066293 1.306391 -7.390087 -3.759030 -4.019923 -7.482023 0.914710 8.678330 -19.017820 -9.685019 -1.851907 -0.115094 -0.417482 0.000000 0.000000 0.000000 8.447660 1.326049 -0.824126 -17.878065 -25.579378 -17.347385 -0.412088 -78.986987 -0.121312 10.955236 0.565508 -0.006680 -0.061588 0.635415 -0.000000 0.000000 0.000000 0.000000 0.000000 0.000000 0.000000 10.157708 -19.030766 1.966434 57.995428 -32.425234 -29.704307 4.018779 22.230767 -0.005010 -4.249221 -0.869436 0.032429 0.179515 -0.037036 -0.000000 0.000000 0.000000 0.000000 0.000000 0.000000 0.000000 
2.377025 16.510326 -2.546821 20.665908 83.569101 28.642680 -12.910040 5.986432 -0.612540 -0.752959 19.641665 -4.852968 -0.357865 2.864871 45.423247 0.852399 -10.598559 23.338358 -5.539100 -0.000000 -73.254500 7.329548 -0.937984 3.600953 18.271870 4.246437 -37.621579 1.919500 -1.100868 29.499146 -3.277557 -11.582604 -12.591882 -179.848000 -0.000000 -4.026400 6.066387 -6.796721 -4.849745 1.308226 -7.300892 -3.731482 -4.285000 -7.383284 0.845652 9.056505 -18.876588 -9.727451 -2.006047 -0.127497 -0.430843 0.000000 0.000000 0.000000 8.321695 1.114775 -0.849067 -18.444246 -25.216083 -17.234783 -0.488031 -80.321925 -0.122168 11.010853 0.503003 -0.012942 -0.062699 0.637416 -0.000000 0.000000 0.000000 0.000000 0.000000 0.000000 0.000000 10.969549 -18.874202 2.011922 58.458571 -31.427150 -29.453908 4.003592 22.071457 -0.005652 -4.339963 -1.162007 0.044715 0.174292 -0.033672 -0.000000 0.000000 0.000000 0.000000 0.000000 0.000000 0.000000 
2.519962 16.453407 -2.516457 15.040680 83.647277 22.916872 -12.878054 5.862178 -0.774014 0.282842 19.782019 -6.228655 -0.194323 3.080082 48.735833 0.996639 -8.476165 23.340450 -4.638600 -0.000000 -68.520200 7.414358 -0.833860 3.493621 18.901629 4.616097 -38.088967 1.797127 -1.349185 32.283060 -3.354776 -11.677882 -13.761428 -179.516800 0.000000 -6.785599 6.518095 -6.676123 -4.559983 1.315554 -7.210786 -3.692324 -4.586964 -7.283508 0.759670 9.486356 -18.680590 -9.765599 -2.179344 -0.141502 -0.444084 0.000000 0.000000 0.000000 8.197838 0.836050 -0.859803 -19.050187 -24.775374 -17.107058 -0.564999 -81.676909 -0.123382 11.089766 0.361209 -0.027198 -0.064625 0.640440 -0.000000 0.000000 0.000000 0.000000 0.000000 0.000000 0.000000 11.883038 -18.667674 2.066882 58.945919 -30.266632 -29.222642 3.984121 21.818622 -0.006202 -4.408609 -1.443909 0.056699 0.168166 -0.030744 -0.000000 0.000000 0.000000 0.000000 0.000000 0.000000 0.000000 
2.655544 16.397970 -2.486060 8.275753 83.733539 16.027121 -12.755833 5.689956 -0.953639 1.322095 19.792779 -7.618198 -0.010004 3.307291 52.073622 1.163642 -5.627568 22.964454 -3.354800 0.000000 -63.498900 7.557263 -0.724390 3.369115 19.614741 4.936193 -38.340123 1.702785 -1.566058 34.738887 -3.451406 -11.848775 -15.028602 -179.152800 0.000000 -9.124700 7.056587 -6.565643 -4.201690 1.334250 -7.136258 -3.642665 -4.922258 -7.200007 0.655636 9.956124 -18.427022 -9.791002 -2.372433 -0.157269 -0.454917 0.000000 0.000000 0.000000 8.068467 0.479336 -0.853244 -19.708641 -24.252906 -16.949626 -0.641066 -83.034711 -0.124999 11.198064 0.129471 -0.050642 -0.067559 0.644530 -0.000000 0.000000 0.000000 0.000000 0.000000 0.000000 0.000000 12.890745 -18.417825 2.127839 59.443139 -28.948378 -28.974785 3.958056 21.471720 -0.006589 -4.482289 -1.684627 0.067383 0.161206 -0.028338 -0.000000 0.000000 0.000000 0.000000 0.000000 0.000000 0.000000 
2.784346 16.345004 -2.455493 0.451621 83.868128 8.049804 -12.552694 5.443199 -1.141090 2.362386 19.641084 -9.006941 0.207209 3.520203 55.394307 1.360242 -2.228292 22.189273 -1.812700 0.000001 -58.272799 7.744284 -0.650288 3.230922 20.403693 5.169938 -38.381076 1.649929 -1.766926 36.832891 -3.567392 -12.088358 -16.386706 -178.754300 0.000000 -11.109400 7.668595 -6.489683 -3.790475 1.366599 -7.100348 -3.585565 -5.282887 -7.156891 0.533848 10.450586 -18.114248 -9.793333 -2.584623 -0.174857 -0.460474 0.000000 0.000000 0.000000 7.927452 0.030813 -0.826200 -20.439540 -23.645374 -16.743631 -0.713638 -84.371641 -0.127003 11.339443 -0.195634 -0.084169 -0.071696 0.649573 -0.000000 0.000000 0.000000 0.000000 0.000000 0.000000 0.000000 13.978327 -18.136142 2.190491 59.939063 -27.482894 -28.673414 3.923194 21.032604 -0.006772 -4.585435 -1.862557 0.076166 0.153473 -0.026454 -0.000000 0.000000 0.000000 0.000000 0.000000 0.000000 0.000000 
2.907243 16.295398 -2.424667 -8.235751 84.079869 -0.819289 -12.318276 5.096772 -1.324498 3.387856 19.298172 -10.387132 0.464025 3.690570 58.651330 1.589237 1.485715 21.021800 -0.179700 0.000000 -52.947000 7.928481 -0.656993 3.081159 21.246231 5.292659 -38.233688 1.645979 -1.965348 38.552836 -3.701162 -12.386640 -17.810065 -178.325900 0.000000 -12.785900 8.301377 -6.471089 -3.349105 1.407112 -7.121360 -3.525209 -5.656459 -7.173518 0.397158 10.952750 -17.742781 -9.762383 -2.813333 -0.194133 -0.457925 0.000000 0.000000 0.000000 7.771469 -0.513977 -0.776887 -21.269723 -22.961075 -16.468468 -0.779438 -85.651599 -0.129317 11.515046 -0.611940 -0.128270 -0.077187 0.655334 -0.000000 0.000000 0.000000 0.000000 0.000000 0.000000 0.000000 15.124667 -17.834897 2.250554 60.426025 -25.879971 -28.279106 3.877841 20.503825 -0.006740 -4.736485 -1.965132 0.082849 0.145028 -0.025023 -0.000000 0.000000 0.000000 0.000000 0.000000 0.000000 0.000000 
3.025095 16.249817 -2.393270 -17.273527 84.347285 -10.062922 -12.131549 4.654782 -1.490980 4.353916 18.754992 -11.755645 0.751406 3.808762 61.788242 1.846295 5.255656 19.505988 1.369700 0.000001 -47.668200 8.045608 -0.762452 2.914989 22.099667 5.296670 -37.925238 1.685377 -2.161806 39.920152 -3.846787 -12.717870 -19.257749 -177.877300 -0.000001 -14.185200 8.860415 -6.513152 -2.899533 1.439153 -7.195379 -3.465217 -6.029721 -7.246392 0.250297 11.448757 -17.312678 -9.689628 -3.054589 -0.214781 -0.444961 0.000000 0.000000 0.000000 7.596877 -1.138233 -0.705727 -22.216316 -22.216109 -16.103148 -0.834035 -86.830268 -0.132071 11.726121 -1.107082 -0.182442 -0.084192 0.661289 -0.000000 0.000000 0.000000 0.000000 0.000000 0.000000 0.000000 16.309224 -17.515666 2.304666 60.900628 -24.151181 -27.748304 3.821299 19.895412 -0.006520 -4.944753 -1.991646 0.087434 0.135958 -0.023939 -0.000000 0.000000 0.000000 0.000000 0.000000 0.000000 0.000000 
3.138849 16.208854 -2.360722 -25.852168 84.597852 -18.857837 -12.045373 4.165667 -1.628070 5.206637 18.031953 -13.116488 1.044699 3.895141 64.744646 2.118216 8.836634 17.720717 2.689200 0.000000 -42.638200 8.063478 -0.934337 2.724792 22.917305 5.196577 -37.480065 1.750286 -2.341424 40.983601 -3.993786 -13.042340 -20.678849 -177.423900 -0.000001 -15.331401 9.267043 -6.589882 -2.457368 1.444888 -7.291345 -3.408524 -6.393701 -7.343743 0.095880 11.927681 -16.819021 -9.566467 -3.304201 -0.236436 -0.419204 0.000000 0.000000 0.000000 7.398699 -1.815919 -0.614929 -23.283327 -21.409031 -15.630493 -0.874485 -87.870753 -0.134293 11.973910 -1.656682 -0.244986 -0.092797 0.666520 0.000000 0.000000 0.000000 0.000000 0.000000 0.000000 0.000000 17.512507 -17.160744 2.352080 61.364114 -22.316365 -27.039519 3.754523 19.227296 -0.006163 -5.207682 -1.951637 0.089921 0.126421 -0.023138 -0.000000 0.000000 0.000000 0.000000 0.000000 0.000000 0.000000 
3.249482 16.172880 -2.326803 -33.397399 84.767957 -26.609330 -12.051451 3.684537 -1.728419 5.931651 17.166934 -14.480345 1.322432 3.977148 67.478022 2.384250 12.018198 15.759482 3.680000 0.000000 -38.031100 8.001150 -1.123624 2.513195 23.681936 5.032381 -36.922303 1.824477 -2.490532 41.787892 -4.132603 -13.331374 -22.017013 -176.985200 0.000000 -16.247500 9.521983 -6.666690 -2.033905 1.422285 -7.375887 -3.357335 -6.740971 -7.431135 -0.062873 12.376743 -16.261193 -9.389669 -3.555785 -0.258498 -0.379630 0.000000 0.000000 0.000000 7.172419 -2.503241 -0.509244 -24.485194 -20.559291 -15.038375 -0.898357 -88.723547 -0.136518 12.258437 -2.235488 -0.314005 -0.102809 0.670186 0.000000 0.000000 0.000000 0.000000 0.000000 0.000000 0.000000 18.703989 -16.753381 2.392911 61.821291 -20.386877 -26.116976 3.680333 18.517999 -0.005747 -5.510278 -1.862037 0.090510 0.116714 -0.022653 -0.000000 0.000000 0.000000 0.000000 0.000000 0.000000 0.000000 
3.357951 16.142165 -2.291273 -39.468941 84.828421 -32.858594 -12.108916 3.251172 -1.788950 6.528375 16.196218 -15.856791 1.573622 4.071023 69.960983 2.621213 14.647152 13.710846 4.299800 -0.000000 -33.952000 7.902199 -1.291589 2.289802 24.382078 4.840740 -36.286571 1.897278 -2.603960 42.378703 -4.253918 -13.559731 -23.225799 -176.581600 -0.000000 -16.965000 9.657130 -6.718510 -1.640245 1.377127 -7.427537 -3.313523 -7.065708 -7.486175 -0.223906 12.785001 -15.637016 -9.157621 -3.803094 -0.280376 -0.325539 0.000000 0.000000 0.000000 6.912831 -3.164230 -0.392286 -25.827259 -19.682903 -14.322127 -0.905494 -89.342646 -0.138447 12.579523 -2.813285 -0.386706 -0.113957 0.671400 0.000000 0.000000 0.000000 0.000000 0.000000 0.000000 0.000000 19.854922 -16.278773 2.426588 62.280160 -18.380596 -24.953377 3.602517 17.791832 -0.005348 -5.825670 -1.743815 0.089303 0.107210 -0.022548 -0.000000 0.000000 0.000000 0.000000 0.000000 0.000000 0.000000 
